<?xml version="1.0" standalone="no"?><!DOCTYPE svg PUBLIC "-//W3C//DTD SVG 1.1//EN" "http://www.w3.org/Graphics/SVG/1.1/DTD/svg11.dtd"><svg t="1718623949134" class="icon" viewBox="0 0 1385 1024" version="1.1" xmlns="http://www.w3.org/2000/svg" p-id="1585" xmlns:xlink="http://www.w3.org/1999/xlink" width="270.5078125" height="200"><path d="M1369.218458 749.568c-6.144-13.824-0.512-25.088-5.632-40.448-13.824-43.52-43.52-89.6-78.336-112.64v-2.56c24.576 9.216 48.64 25.6 56.832 51.2h10.752c-2.048-69.12-82.432-83.456-132.096-107.52-19.456-9.216-30.208-28.16-45.568-40.448 0.512-12.288 5.632-26.112 0-34.816v-15.872c26.624 9.216 24.064 39.936 37.888 61.952 4.096 6.656 11.776 11.776 16.384 18.944h16.384c-4.096-14.336-11.264-27.136-21.504-37.376V481.28c9.728 4.608 8.192 10.752 21.504 13.312 0-17.92-2.56-28.672-10.752-37.376-0.512-15.872-0.512-22.528 10.752-26.624-20.992-84.48-38.4-125.44-126.464-144.896-19.968-3.584-40.448-2.048-59.392 5.632-37.376 16.896-52.224 49.664-75.264 80.384-6.656 9.216-19.968 12.8-27.136 21.504-14.336-1.536-22.016-7.68-32.256-10.752-15.36-4.608-74.752-4.608-91.648 0-27.648 7.68-101.888 33.28-142.848 21.504-32.768-9.728-54.784-34.304-91.648-37.376 4.096-7.168 29.184-11.776 34.816-8.192h8.192v-5.632c-8.192-3.072-16.384-6.656-24.064-10.752h-3.072v-2.56c17.92 0.512 21.504 4.608 37.888 5.632-1.024-8.192-6.144-15.36-13.312-18.944V322.56c15.36 2.56 18.432 9.728 34.816 10.752-1.536-14.336-10.752-27.136-24.064-32.256l2.56-15.872h-8.192c-2.048-5.12-2.56-10.752-2.56-15.872-10.752-5.12-21.504-10.24-32.256-15.872v-10.752c-17.408-1.536-23.552-9.216-34.816-15.872v-5.632c27.648 3.072 40.448 19.968 67.584 21.504v-8.192h2.56v-2.56c10.752 1.536 21.504 1.536 32.256 0v-8.192c-8.704 1.024-8.704 2.56-13.312 0-31.744-4.096-31.232-48.128-80.896-56.32 2.56-6.144 1.024-4.608 5.632-8.192-5.632-23.552-39.936-49.152-67.584-51.2 4.096-6.656 34.816-10.24 43.008-10.752v-2.56h2.56c-1.024-13.312-3.072-11.264-8.192-18.944-20.48 0-33.792 2.048-51.2 0v-10.752c-13.824-1.536-69.632-24.576-78.336-32.256-33.28 1.024-39.936-12.8-51.2-32.256h-10.752c1.024 8.704 2.048 17.92 2.56 26.624-9.728 0-19.968 1.024-29.696 2.56-5.12-5.632-9.728-11.776-13.312-18.944-3.584 0.512-7.168 1.024-10.752 2.56l5.632 34.816c-33.792-0.512-34.304 10.752-51.2 24.064v13.312c8.192-1.024 15.872-5.12 21.504-10.752H307.842458c-5.12 14.848-20.48 15.36-27.136 26.624-4.096 7.68-1.024 14.848-5.632 21.504l-27.136 24.064c-16.896 23.04-27.648 41.984-53.76 56.32-1.024 5.632-2.56 11.264-5.632 15.872-0.512 26.112 5.12 28.16 13.312 43.008 8.192 0 16.896 0.512 21.504-2.56h2.56v15.872c11.776 0.512 30.72 2.048 37.888-2.56 20.992-2.56 38.912-34.816 59.392-43.008 13.312-5.632 23.552 3.584 32.256-5.632 11.776 1.536 9.216 3.072 16.384 8.192 1.536 32.768 8.192 67.584-5.632 99.328-9.728 22.528-28.672 46.592-37.888 72.704-9.216 26.624-5.632 56.32-21.504 75.264 0.512 45.568 0.512 46.08-16.384 72.704-33.28-1.024-74.752-25.6-107.52-15.872-19.968 5.632-32.768 19.456-48.64 26.624-0.512 22.016-1.536 44.544 8.192 56.32 12.288 16.384 35.84 24.064 48.64 40.448 11.264 15.36 27.648 28.16 37.888 43.008 5.12 7.168 5.12 15.36 10.752 21.504-7.68 12.8-31.232 14.336-40.448 26.624-40.96 56.832-81.92 128.512-156.16 150.528 0 3.584 0.512 7.68 2.56 10.752-2.56 5.12-41.472 51.2-45.568 53.76-0.512 5.632 0.512 11.264 2.56 15.872 14.848 11.264 69.12 5.632 80.896-5.632 26.624-11.264 14.336-40.96 29.696-56.32v-2.56c5.12 2.048 8.704 6.144 10.752 10.752 27.648-6.144 26.624-49.664 40.448-69.632 27.648-40.96 98.304-43.52 121.344-88.576 19.456 6.144 44.544 20.48 56.832 34.816h13.312c5.632-29.696-7.68-49.152-13.312-72.704 32.256-11.776 63.488-25.088 94.208-40.448 24.576-11.776 46.08-7.68 61.952-26.624 22.528 3.584 52.224 10.752 75.264 15.872 43.52 10.24 99.84-16.384 126.464-26.624 12.8-5.12 27.136-1.536 37.888-8.192 6.656 0.512 13.312 2.048 18.944 5.632 1.536 5.12 4.096 9.728 8.192 13.312-2.048 72.704 45.568 38.4 86.016 61.952l8.192 2.56c-15.872 32.768-120.32 56.32-153.6 80.384-29.184 20.992-21.504 67.072-43.008 91.136-0.512 10.24-1.536 26.112 2.56 32.256 13.824 7.68 70.144-32.768 83.456-40.448 0.512-12.8 1.024-23.552-5.632-29.696-0.512-15.36 0.512-22.528 8.192-29.696 7.168-3.072 24.576 5.12 29.696 13.312 23.04-2.048 25.6-37.376 45.568-48.128 20.48-10.752 42.496-19.968 64.512-26.624 13.824-4.608 22.016 0 34.816-5.632 19.968-8.192 33.792-26.624 48.64-40.448-2.56-27.136-26.624-24.064-45.568-34.816-6.656-3.584-11.776-11.776-18.944-15.872v-5.632c17.92 0.512 31.744 7.168 45.568 10.752h59.392c18.432 5.12 74.752 31.232 83.456 43.008 8.192 11.264 16.384 55.296 21.504 72.704 8.192 27.648 14.336 89.088-2.56 115.712v21.504c-3.072 4.608-14.848 6.656-18.944 10.752-15.872 16.384-30.208 37.376-48.64 51.2v18.944c15.36 2.56 48.128 12.8 70.144 5.632 6.144-2.048 5.632-4.608 18.944-5.632 2.56-5.632 5.632-11.264 8.192-15.872h10.752c-1.536-18.432-5.632-34.816-5.632-58.88 22.528-0.512 31.232-8.192 45.568-15.872-1.536-29.696-11.776-50.176-18.944-72.704-5.632-18.432 0-30.72-5.632-48.128-13.312-42.496-27.136-95.744-27.136-150.528-10.24-5.12-21.504-9.728-32.256-13.312-19.456-5.632-35.328 2.048-51.2-5.632-7.68-3.584-12.288-13.824-18.944-18.944 1.536-57.856 25.088-116.224-16.384-158.72v-5.632c31.744 13.824 30.208 61.952 56.832 80.384 9.728 6.656 22.016 6.656 32.256 13.312 12.288 8.192 16.896 28.672 29.696 37.376 40.448 27.648 97.28 59.392 123.904 99.328l16.384-2.56c9.728 18.432 26.112 29.696 27.136 56.32 11.776-0.512 12.8 1.024 16.384-8.192 10.24 6.144 14.336 25.088 21.504 34.816 5.12 6.144 13.824 9.216 18.944 15.872h13.312c0.512-17.92-9.216-14.336-14.848-27.136zM631.426458 316.928h5.632V322.56h-5.632v-5.632zM240.770458 258.048v-5.632c1.536 1.536 2.56 3.584 2.56 5.632h-2.56z m13.312-5.632h-5.632v-5.632h5.632v5.632zM302.722458 129.024c-4.096-2.56-3.584-10.752 1.024-18.432 4.608-7.68 11.776-11.264 15.872-8.704 4.096 2.56 3.584 10.752-1.024 18.432-4.608 7.68-11.776 11.776-15.872 8.704z m-16.384 559.104c-34.304-2.56-60.928-41.984-64.512-75.264 26.624 2.048 37.888 18.432 56.32 26.624 12.288 5.632 25.6 3.072 34.816 10.752h10.752c-7.168 14.848-27.648 23.552-37.376 37.888z m272.384-537.6c-12.288-0.512-12.8-3.072-21.504-5.632v-5.632c7.68 1.536 14.848 4.096 21.504 8.192v3.072z m7.68 5.632h-5.632v-5.632h5.632v5.632z" fill="#727272" p-id="1586"></path></svg>